<svg width="502" height="140" viewBox="0 0 502 140" fill="none" xmlns="http://www.w3.org/2000/svg">
<path d="M111.56 27.89L83.67 0H27.89L0 27.89V55.78L27.89 83.67V55.78H83.67H111.56V27.89H111.55H111.56Z" fill="white"/>
<path d="M27.89 83.6698H0V111.56L27.89 139.44H83.67L111.56 111.56V83.6698L83.67 55.7798V83.6698H27.89Z" fill="white"/>
<path d="M140.059 79.67V79.3H153.409V80.29C153.409 88.32 158.229 90.92 171.079 90.92C183.069 90.92 186.649 88.45 186.649 83.01C186.649 77.94 183.689 76.34 174.909 75.1L158.099 72.88C146.479 71.4 139.439 66.45 139.439 56.2C139.439 45.95 149.199 37.79 168.109 37.79C187.019 37.79 198.259 45.33 198.259 59.91V60.28H185.039V59.54C185.039 52.25 181.329 48.42 167.739 48.42C156.489 48.42 152.539 50.89 152.539 56.7C152.539 61.52 155.009 63.25 164.279 64.49L178.489 66.47C193.069 68.32 199.749 73.27 199.749 83.4C199.749 94.89 188.379 101.69 171.079 101.69C151.309 101.69 140.059 93.9 140.059 79.69V79.67Z" fill="white"/>
<path d="M210.389 75.9603V39.0103H223.609V72.3803C223.609 83.8703 228.919 89.6803 241.899 89.6803C254.879 89.6803 261.799 82.7603 261.799 69.4103V39.0103H275.019V100.43H262.779V81.4003H262.039C260.059 91.7803 251.909 101.67 236.089 101.67C218.789 101.67 210.379 90.1803 210.379 75.9603H210.389Z" fill="white"/>
<path d="M286.209 121.44V39.01H298.449V56.06H299.559C302.029 44.69 310.679 37.77 325.139 37.77C344.169 37.77 354.929 50.75 354.929 69.78C354.929 88.81 344.419 101.66 325.269 101.66C311.429 101.66 302.529 94.37 300.059 83.12H299.569V121.43H286.219L286.209 121.44ZM320.689 89.56C333.909 89.56 341.579 84.49 341.579 69.79C341.579 55.09 333.799 50.02 320.939 50.02C307.219 50.02 299.559 56.45 299.559 69.67V70.78C299.559 83.39 307.589 89.57 320.689 89.57V89.56Z" fill="white"/>
<path d="M365.229 79.67V79.3H378.579V80.29C378.579 88.32 383.399 90.92 396.249 90.92C408.239 90.92 411.819 88.45 411.819 83.01C411.819 77.94 408.859 76.34 400.079 75.1L383.269 72.88C371.649 71.4 364.609 66.45 364.609 56.2C364.609 45.95 374.369 37.79 393.279 37.79C412.189 37.79 423.429 45.33 423.429 59.91V60.28H410.209V59.54C410.209 52.25 406.499 48.42 392.909 48.42C381.659 48.42 377.709 50.89 377.709 56.7C377.709 61.52 380.179 63.25 389.449 64.49L403.659 66.47C418.239 68.32 424.919 73.27 424.919 83.4C424.919 94.89 413.549 101.69 396.249 101.69C376.479 101.69 365.229 93.9 365.229 79.69V79.67Z" fill="white"/>
<path d="M433.66 69.78C433.66 50.62 447.38 37.77 467.77 37.77C488.16 37.77 502 50.62 502 69.78C502 88.94 488.28 101.66 467.77 101.66C447.26 101.66 433.66 88.68 433.66 69.78ZM488.9 69.78C488.9 56.68 482.72 49.51 467.77 49.51C452.82 49.51 446.76 56.68 446.76 69.78C446.76 82.88 452.94 89.8 467.77 89.8C482.6 89.8 488.9 82.76 488.9 69.78Z" fill="white"/>
</svg>
