<?xml version="1.0" encoding="UTF-8"?>
<svg id="Warstwa_2" data-name="Warstwa 2" xmlns="http://www.w3.org/2000/svg" xmlns:xlink="http://www.w3.org/1999/xlink" viewBox="0 0 502 139.44">
  <defs>
    <style>
      .cls-1 {
        fill: url(#Gradient_bez_nazwy_13-2);
      }

      .cls-1, .cls-2, .cls-3 {
        stroke-width: 0px;
      }

      .cls-2 {
        fill: #fff;
      }

      .cls-3 {
        fill: url(#Gradient_bez_nazwy_13);
      }
    </style>
    <linearGradient id="Gradient_bez_nazwy_13" data-name="Gradient bez nazwy 13" x1="74.8" y1="-5.33" x2="23.33" y2="122.3" gradientUnits="userSpaceOnUse">
      <stop offset="0" stop-color="#c9eb14"/>
      <stop offset=".43" stop-color="#22e314"/>
      <stop offset="1" stop-color="#08eedb"/>
    </linearGradient>
    <linearGradient id="Gradient_bez_nazwy_13-2" data-name="Gradient bez nazwy 13" x1="94.14" y1="2.47" x2="42.68" y2="130.1" xlink:href="#Gradient_bez_nazwy_13"/>
  </defs>
  <g id="Warstwa_1-2" data-name="Warstwa 1">
    <g>
      <polygon class="cls-3" points="111.56 27.89 83.67 0 27.89 0 0 27.89 0 55.78 27.89 83.67 27.89 55.78 83.67 55.78 111.56 55.78 111.56 27.89 111.55 27.89 111.56 27.89"/>
      <polygon class="cls-1" points="27.89 83.67 0 83.67 0 111.56 27.89 139.44 83.67 139.44 111.56 111.56 111.56 111.56 111.56 83.67 83.67 55.78 83.67 83.67 27.89 83.67"/>
    </g>
    <g>
      <path class="cls-2" d="m140.06,79.67v-.37h13.35v.99c0,8.03,4.82,10.63,17.67,10.63,11.99,0,15.57-2.47,15.57-7.91,0-5.07-2.96-6.67-11.74-7.91l-16.81-2.22c-11.62-1.48-18.66-6.43-18.66-16.68s9.76-18.41,28.67-18.41,30.15,7.54,30.15,22.12v.37h-13.22v-.74c0-7.29-3.71-11.12-17.3-11.12-11.25,0-15.2,2.47-15.2,8.28,0,4.82,2.47,6.55,11.74,7.79l14.21,1.98c14.58,1.85,21.26,6.8,21.26,16.93,0,11.49-11.37,18.29-28.67,18.29-19.77,0-31.02-7.79-31.02-22Z"/>
      <path class="cls-2" d="m210.39,75.96v-36.95h13.22v33.37c0,11.49,5.31,17.3,18.29,17.3s19.9-6.92,19.9-20.27v-30.4h13.22v61.42h-12.24v-19.03h-.74c-1.98,10.38-10.13,20.27-25.95,20.27-17.3,0-25.71-11.49-25.71-25.71Z"/>
      <path class="cls-2" d="m286.21,121.44V39.01h12.24v17.05h1.11c2.47-11.37,11.12-18.29,25.58-18.29,19.03,0,29.79,12.98,29.79,32.01s-10.51,31.88-29.66,31.88c-13.84,0-22.74-7.29-25.21-18.54h-.49v38.31h-13.35Zm34.48-31.88c13.22,0,20.89-5.07,20.89-19.77s-7.78-19.77-20.64-19.77c-13.72,0-21.38,6.43-21.38,19.65v1.11c0,12.61,8.03,18.79,21.13,18.79Z"/>
      <path class="cls-2" d="m365.23,79.67v-.37h13.35v.99c0,8.03,4.82,10.63,17.67,10.63,11.99,0,15.57-2.47,15.57-7.91,0-5.07-2.96-6.67-11.74-7.91l-16.81-2.22c-11.62-1.48-18.66-6.43-18.66-16.68s9.76-18.41,28.67-18.41,30.15,7.54,30.15,22.12v.37h-13.22v-.74c0-7.29-3.71-11.12-17.3-11.12-11.25,0-15.2,2.47-15.2,8.28,0,4.82,2.47,6.55,11.74,7.79l14.21,1.98c14.58,1.85,21.26,6.8,21.26,16.93,0,11.49-11.37,18.29-28.67,18.29-19.77,0-31.02-7.79-31.02-22Z"/>
      <path class="cls-2" d="m433.66,69.78c0-19.16,13.72-32.01,34.11-32.01s34.23,12.85,34.23,32.01-13.72,31.88-34.23,31.88-34.11-12.98-34.11-31.88Zm55.24,0c0-13.1-6.18-20.27-21.13-20.27s-21.01,7.17-21.01,20.27,6.18,20.02,21.01,20.02,21.13-7.04,21.13-20.02Z"/>
    </g>
  </g>
</svg>